<svg width="73" height="88" viewBox="0 0 73 88" fill="none" xmlns="http://www.w3.org/2000/svg">
<g clip-path="url(#clip0_46_449)">
<path d="M65.5412 15.8153L54.4239 27.3419M66.9563 21.3608L59.9825 21.5786M69.1316 19.089C70.0256 18.162 70.5043 16.9277 70.4623 15.6576C70.4204 14.3875 69.8612 13.1856 68.9079 12.3164C67.9545 11.4471 66.6851 10.9817 65.3788 11.0224C64.0725 11.0632 62.8364 11.6069 61.9424 12.5338L56.5822 18.0913L56.8062 24.8719L63.7799 24.6542L69.1316 19.089Z" stroke="white" stroke-width="2" stroke-linecap="round" stroke-linejoin="round"/>
</g>
<path d="M22.8389 44.4129H43.7993C46.5788 44.4129 49.2445 43.2583 51.2099 41.2031C53.1754 39.1479 54.2795 36.3604 54.2795 33.4539C54.2795 30.5474 53.1754 27.76 51.2099 25.7048C49.2445 23.6496 46.5788 22.495 43.7993 22.495H22.8389V44.4129ZM22.8389 44.4129H46.4194C49.1989 44.4129 51.8646 45.5675 53.83 47.6227C55.7954 49.6779 56.8996 52.4654 56.8996 55.3719C56.8996 58.2784 55.7954 61.0659 53.83 63.1211C51.8646 65.1763 49.1989 66.3309 46.4194 66.3309H22.8389V44.4129Z" stroke="white" stroke-width="4" stroke-linecap="round" stroke-linejoin="round"/>
<path d="M7.21817 76.0371C7.24346 76.581 7.7174 77.0009 8.27675 76.9749L17.3919 76.5511C17.9512 76.5251 18.3842 76.063 18.3589 75.5191C18.3336 74.9752 17.8596 74.5554 17.3003 74.5814L9.19797 74.9581L8.83165 67.0792C8.80636 66.5353 8.33242 66.1154 7.77307 66.1414C7.21372 66.1674 6.78078 66.6295 6.80607 67.1734L7.21817 76.0371ZM53.8276 25.8692L7.48244 75.3269L8.97949 76.6531L55.3247 27.1954L53.8276 25.8692Z" fill="white"/>
<defs>
<clipPath id="clip0_46_449">
<rect width="19.7002" height="19.1556" fill="white" transform="matrix(0.999513 -0.0312081 0.0330096 0.999455 52.2034 9.84341)"/>
</clipPath>
</defs>
</svg>
